<?xml version="1.0" encoding="UTF-8" standalone="no"?>
<svg xmlns="http://www.w3.org/2000/svg" viewBox="0 0 512 512" width="512" height="512">
  <!-- Main circular background -->
  <circle cx="256" cy="256" r="200" fill="#5142a5" />
  
  <!-- Dashed route path -->
  <path d="M150,190 Q180,160 220,160 Q260,160 280,210 Q300,260 340,290 Q380,320 360,360 Q340,400 290,390 Q240,380 230,330 Q220,280 180,250 Q140,220 150,190" 
        stroke="#ffd740" stroke-width="12" stroke-dasharray="20,15" fill="none" />
  
  <!-- Location pin 1 (top) -->
  <g transform="translate(290,135) scale(0.8)">
    <path d="M60,60 A60,60 0 1,1 0,-60 A60,60 0 1,1 60,60 Z" fill="#ff5252" />
    <circle cx="0" cy="0" r="20" fill="#5142a5" />
  </g>
  
  <!-- Location pin 2 (bottom) -->
  <g transform="translate(175,315) scale(0.8)">
    <path d="M60,60 A60,60 0 1,1 0,-60 A60,60 0 1,1 60,60 Z" fill="#ff5252" />
    <circle cx="0" cy="0" r="20" fill="#5142a5" />
  </g>
</svg> 